# xmcd
#
# Track frame offsets:
#	182
#	14840
#	28777
#	38052
#	57250
#	71542
#	87387
#	105547
#	117007
#	133745
#	148687
#	163882
#	177155
#	199350
#
# Disc length: 2893 seconds
#
# Revision: 4
# Processed by: cddbd v1.5.2PL0 Copyright (c) Steve Scherf et al.
# Submitted via: audiograbber 1.83.01
#
DISCID=cc0b4b0e
DTITLE=Luiz Gonzaga - Gonzagão and Fagner
DYEAR=1991
DGENRE=Forró
TTITLE0=Seu Januario (O Maior Tocador) - São João Na Roça - Olha Pro Céu
TTITLE1=Vem Morena
TTITLE2=Xamêgo
TTITLE3=Respeita Januario - Riacho do Navio - Forró No Escuro
TTITLE4=ABC do Sertão
TTITLE5=Corrida de Mourão (Canção de Vaquejada)
TTITLE6=Baião - Algodão - No Ceará Não Tem Disso Não
TTITLE7=Estrada de Canindé
TTITLE8=O Chero da Carolina - Cintura Fina - O Xote das Meninas
TTITLE9=Cigarro de Paia - Boiadeiro
TTITLE10=Noites Brasileiras
TTITLE11=Súplica Cearense
TTITLE12=Vaca Estrela e Boi Fubá
TTITLE13=Amanhã Eu Vou
EXTD=Dados Por - Dayvison de Azevedo - Recife - PE\nFacebook - https://www.face
EXTD=book.com/profile.php?id=100006142608616
EXTT0=
EXTT1=
EXTT2=
EXTT3=
EXTT4=
EXTT5=
EXTT6=
EXTT7=
EXTT8=
EXTT9=
EXTT10=
EXTT11=
EXTT12=
EXTT13=
PLAYORDER=
